<svg width="683.9187499999999px" height="70.4px" xmlns="http://www.w3.org/2000/svg" viewBox="-91.95937499999997 39.8 683.9187499999999 70.4" style="background: none;" preserveAspectRatio="xMidYMid"><defs><filter id="editing-extrude-glow"><feFlood flood-color="#96be8e" result="flood-1"></feFlood><feMorphology operator="erode" radius="1" in="SourceAlpha" result="erode"></feMorphology><feComposite operator="in" in="flood-1" in2="erode" result="comp1"></feComposite><feConvolveMatrix order="3,3" divisor="1" in="comp1" result="convolve" kernelMatrix="0 0 0 1 1 1 0 0 0"></feConvolveMatrix><feOffset dx="-3" dy="0" in="convolve" result="extrude"></feOffset><feComposite operator="in" in="flood-1" in2="extrude" result="comp-extrude"></feComposite><feFlood flood-color="#dce4eb" result="flood-2"></feFlood><feComposite operator="in" in="flood-2" in2="SourceAlpha" result="comp2"></feComposite><feMorphology operator="dilate" radius="1" in="comp2" result="dilate"></feMorphology><feOffset dx="-4.5" dy="0" in="dilate" result="offset"></feOffset><feGaussianBlur in="offset" stdDeviation="5.8" result="blur"></feGaussianBlur><feComponentTransfer in="blur" result="shadow"><feFuncA type="linear" slope="0.8" intercept="-0.2"></feFuncA></feComponentTransfer><feMerge><feMergeNode in="shadow"></feMergeNode><feMergeNode in="comp-extrude"></feMergeNode><feMergeNode in="SourceGraphic"></feMergeNode></feMerge></filter></defs><g filter="url(#editing-extrude-glow)"><g transform="translate(5.999998509883881, 87)"><path d="M13.92-4.93L13.92-4.93L13.92-4.93Q14.53-4.16 14.53-2.67L14.53-2.67L14.53-2.67Q14.53-1.18 13.39-0.27L13.39-0.27L13.39-0.27Q12.26 0.64 10.27 0.64L10.27 0.64L10.27 0.64Q9.12 0.64 7.33 0.38L7.33 0.38L7.33 0.38Q3.81-0.16 2.80-0.16L2.80-0.16L2.80-0.16Q1.79-0.16 1.38-0.11L1.38-0.11L1.38-0.11Q0.96-0.06 0.29 0L0.29 0L4.16-21.12L11.17-21.12L7.97-3.52L7.97-3.52Q8.38-3.46 8.77-3.46L8.77-3.46L9.57-3.46L9.57-3.46Q12.26-3.46 13.92-4.93ZM26.94-1.34L26.94-1.34L26.94-1.34Q25.41 0.64 21.60 0.64L21.60 0.64L21.60 0.64Q19.62 0.64 18.18-0.56L18.18-0.56L18.18-0.56Q16.74-1.76 16.74-3.49L16.74-3.49L16.74-3.49Q16.74-4.45 16.83-4.93L16.83-4.93L18.98-16.32L25.47-16.96L23.14-4.61L23.14-4.61Q23.01-3.90 23.01-3.49L23.01-3.49L23.01-3.49Q23.01-1.63 24.13-1.63L24.13-1.63L24.13-1.63Q25.38-1.63 26.27-3.33L26.27-3.33L26.27-3.33Q26.56-3.87 26.69-4.58L26.69-4.58L28.96-16.32L35.26-16.96L32.90-4.48L32.90-4.48Q32.80-4 32.80-3.49L32.80-3.49L32.80-3.49Q32.80-2.98 33.09-2.42L33.09-2.42L33.09-2.42Q33.38-1.86 34.30-1.73L34.30-1.73L34.30-1.73Q34.11-0.96 33.44-0.45L33.44-0.45L33.44-0.45Q32.03 0.64 30.51 0.64L30.51 0.64L30.51 0.64Q28.99 0.64 28.10 0.10L28.10 0.10L28.10 0.10Q27.20-0.45 26.94-1.34ZM44.67-1.76L44.67-1.76L44.67-1.76Q43.68 0.64 40.51 0.64L40.51 0.64L40.51 0.64Q38.88 0.64 37.86-0.48L37.86-0.48L37.86-0.48Q36.99-1.47 36.99-2.46L36.99-2.46L36.99-2.46Q36.99-5.06 38.18-10.11L38.18-10.11L39.36-16.32L45.86-16.96L43.90-6.85L43.90-6.85Q43.36-4.48 43.36-3.65L43.36-3.65L43.36-3.65Q43.36-1.82 44.67-1.76ZM39.94-20.77L39.94-20.77L39.94-20.77Q39.94-22.02 40.98-22.69L40.98-22.69L40.98-22.69Q42.02-23.36 43.52-23.36L43.52-23.36L43.52-23.36Q45.02-23.36 45.94-22.69L45.94-22.69L45.94-22.69Q46.85-22.02 46.85-20.77L46.85-20.77L46.85-20.77Q46.85-19.52 45.84-18.88L45.84-18.88L45.84-18.88Q44.83-18.24 43.33-18.24L43.33-18.24L43.33-18.24Q41.82-18.24 40.88-18.88L40.88-18.88L40.88-18.88Q39.94-19.52 39.94-20.77ZM56.96-11.23L56.96-11.23L56.96-11.23Q57.41-12.42 57.41-13.44L57.41-13.44L57.41-13.44Q57.41-15.33 55.87-15.33L55.87-15.33L55.87-15.33Q55.07-15.33 54.42-14.61L54.42-14.61L54.42-14.61Q53.76-13.89 53.76-12.99L53.76-12.99L53.76-12.99Q53.76-12.35 54.27-11.84L54.27-11.84L54.27-11.84Q55.01-11.14 56.90-9.98L56.90-9.98L56.90-9.98Q58.78-8.83 59.50-7.89L59.50-7.89L59.50-7.89Q60.22-6.94 60.22-5.65L60.22-5.65L60.22-5.65Q60.22-4.35 59.60-3.17L59.60-3.17L59.60-3.17Q58.98-1.98 57.86-1.15L57.86-1.15L57.86-1.15Q55.46 0.64 51.62 0.64L51.62 0.64L51.62 0.64Q49.54 0.64 47.94-0.45L47.94-0.45L47.94-0.45Q46.34-1.50 46.34-2.75L46.34-2.75L46.34-2.75Q46.34-4 47.25-4.74L47.25-4.74L47.25-4.74Q48.16-5.47 49.50-5.47L49.50-5.47L49.50-5.47Q50.85-5.47 51.68-4.96L51.68-4.96L51.68-4.96Q51.26-3.90 51.26-3.20L51.26-3.20L51.26-3.20Q51.26-1.09 53.06-1.09L53.06-1.09L53.06-1.09Q53.82-1.09 54.34-1.57L54.34-1.57L54.34-1.57Q54.85-2.05 54.85-2.88L54.85-2.88L54.85-2.88Q54.85-4.51 52.10-6.24L52.10-6.24L52.10-6.24Q49.86-7.71 49.34-8.29L49.34-8.29L49.34-8.29Q48.48-9.31 48.48-10.59L48.48-10.59L48.48-10.59Q48.48-11.87 49.09-13.09L49.09-13.09L49.09-13.09Q49.70-14.30 50.82-15.17L50.82-15.17L50.82-15.17Q53.15-16.96 57.22-16.96L57.22-16.96L57.22-16.96Q59.30-16.96 60.53-16.13L60.53-16.13L60.53-16.13Q61.76-15.30 61.76-13.89L61.76-13.89L61.76-13.89Q61.76-12.48 60.91-11.68L60.91-11.68L60.91-11.68Q60.06-10.88 58.53-10.88L58.53-10.88L58.53-10.88Q57.47-10.88 56.96-11.23ZM86.24-6.62L86.24-6.62L86.24-6.62Q87.07-6.02 87.07-4.72L87.07-4.72L87.07-4.72Q87.07-3.42 86.51-2.51L86.51-2.51L86.51-2.51Q85.95-1.60 84.86-0.90L84.86-0.90L84.86-0.90Q82.53 0.61 78.45 0.61L78.45 0.61L78.45 0.61Q74.37 0.61 72.14-1.52L72.14-1.52L72.14-1.52Q69.92-3.65 69.92-7.42L69.92-7.42L69.92-7.42Q69.92-12.77 72.70-16.83L72.70-16.83L72.70-16.83Q74.82-19.84 78.59-21.12L78.59-21.12L78.59-21.12Q80.54-21.76 82.46-21.76L82.46-21.76L82.46-21.76Q84.38-21.76 85.57-21.50L85.57-21.50L85.57-21.50Q86.75-21.25 87.65-20.74L87.65-20.74L87.65-20.74Q89.60-19.62 89.60-17.82L89.60-17.82L89.60-17.82Q89.60-16.19 88.06-14.98L88.06-14.98L88.06-14.98Q86.66-13.89 85.50-13.89L85.50-13.89L85.50-13.89Q84.35-13.89 83.87-14.05L83.87-14.05L83.87-14.05Q84-15.20 84-15.95L84-15.95L84-15.95Q84-16.70 83.97-17.25L83.97-17.25L83.97-17.25Q83.94-17.79 83.78-18.30L83.78-18.30L83.78-18.30Q83.46-19.49 82.48-19.49L82.48-19.49L82.48-19.49Q81.50-19.49 80.53-18.58L80.53-18.58L80.53-18.58Q79.55-17.66 78.72-16.13L78.72-16.13L78.72-16.13Q76.83-12.64 76.83-8.51L76.83-8.51L76.83-8.51Q76.83-6.53 77.95-5.39L77.95-5.39L77.95-5.39Q79.07-4.26 81.47-4.26L81.47-4.26L81.47-4.26Q83.26-4.26 84.96-5.44L84.96-5.44L84.96-5.44Q85.70-5.95 86.24-6.62ZM91.12-0.96L91.12-0.96L91.12-0.96Q90.37-1.79 90.03-3.10L90.03-3.10L90.03-3.10Q89.70-4.42 89.70-6.56L89.70-6.56L89.70-6.56Q89.70-8.70 90.43-10.66L90.43-10.66L90.43-10.66Q91.17-12.61 92.51-14.02L92.51-14.02L92.51-14.02Q95.26-16.96 99.81-16.96L99.81-16.96L99.81-16.96Q101.44-16.96 102.62-16.42L102.62-16.42L108.10-16.96L105.73-4.48L105.73-4.48Q105.63-4.10 105.63-3.39L105.63-3.39L105.63-3.39Q105.63-2.69 106.06-2.24L106.06-2.24L106.06-2.24Q106.50-1.79 107.14-1.73L107.14-1.73L107.14-1.73Q106.82-0.64 105.65 0L105.65 0L105.65 0Q104.48 0.64 103.17 0.64L103.17 0.64L103.17 0.64Q101.86 0.64 100.98 0.14L100.98 0.14L100.98 0.14Q100.10-0.35 99.84-1.18L99.84-1.18L99.84-1.18Q99.33-0.38 98.24 0.13L98.24 0.13L98.24 0.13Q97.15 0.64 95.70 0.64L95.70 0.64L95.70 0.64Q94.24 0.64 93.06 0.26L93.06 0.26L93.06 0.26Q91.87-0.13 91.12-0.96ZM97.87-13.95L97.87-13.95L97.87-13.95Q97.50-13.38 97.18-12.40L97.18-12.40L97.18-12.40Q96.86-11.42 96.34-8.82L96.34-8.82L96.34-8.82Q95.81-6.21 95.81-4.35L95.81-4.35L95.81-4.35Q95.81-2.50 96.10-1.95L96.10-1.95L96.10-1.95Q96.38-1.41 96.90-1.41L96.90-1.41L96.90-1.41Q97.92-1.41 98.67-2.38L98.67-2.38L98.67-2.38Q99.42-3.36 99.71-5.09L99.71-5.09L101.41-14.46L101.41-14.46Q100.74-15.04 99.95-15.04L99.95-15.04L99.95-15.04Q99.17-15.04 98.70-14.78L98.70-14.78L98.70-14.78Q98.24-14.53 97.87-13.95ZM119.84-8.99L119.84-8.99L119.84-8.99Q120.99-11.04 120.99-13.12L120.99-13.12L120.99-13.12Q120.99-14.50 120-14.50L120-14.50L120-14.50Q119.23-14.50 118.43-13.18L118.43-13.18L118.43-13.18Q117.60-11.87 117.34-10.18L117.34-10.18L115.68 0L109.06 0.64L112.32-16.32L117.60-16.96L117.02-13.73L117.02-13.73Q118.59-16.96 122.11-16.96L122.11-16.96L122.11-16.96Q123.97-16.96 124.98-16L124.98-16L124.98-16Q125.98-15.04 125.98-13.07L125.98-13.07L125.98-13.07Q125.98-11.10 124.69-9.86L124.69-9.86L124.69-9.86Q123.39-8.61 121.18-8.61L121.18-8.61L121.18-8.61Q120.22-8.61 119.84-8.99ZM138.11-15.78L138.11-15.78L138.11-15.78Q139.17-16.96 140.99-16.96L140.99-16.96L140.99-16.96Q142.11-16.96 142.98-16.35L142.98-16.35L142.98-16.35Q143.84-15.74 143.84-14.61L143.84-14.61L143.84-14.61Q143.84-13.47 143.49-12.26L143.49-12.26L143.49-12.26Q143.14-11.04 142.59-9.79L142.59-9.79L142.59-9.79Q141.50-7.36 140-5.34L140-5.34L140-5.34Q137.89-2.43 135.86-0.90L135.86-0.90L135.86-0.90Q133.82 0.64 131.62 0.64L131.62 0.64L131.62 0.64Q129.82 0.64 128.74 0.22L128.74 0.22L128.74 0.22Q128.54-6.50 128.30-8.90L128.30-8.90L128.30-8.90Q128.06-11.30 127.87-12.61L127.87-12.61L127.87-12.61Q127.55-15.17 126.59-15.78L126.59-15.78L126.59-15.78Q127.33-16.42 128.05-16.69L128.05-16.69L128.05-16.69Q128.77-16.96 130.26-16.96L130.26-16.96L130.26-16.96Q131.74-16.96 132.80-15.79L132.80-15.79L132.80-15.79Q133.86-14.62 134.06-12.56L134.06-12.56L134.06-12.56Q134.27-10.50 134.27-8L134.27-8L134.27-8Q134.27-5.50 134.08-2.50L134.08-2.50L134.08-2.50Q135.07-3.20 136.13-5.34L136.13-5.34L136.13-5.34Q137.57-8.32 138.08-11.90L138.08-11.90L138.08-11.90Q138.24-12.99 138.24-14.14L138.24-14.14L138.24-14.14Q138.24-15.30 138.11-15.78ZM146.10-0.96L146.10-0.96L146.10-0.96Q145.34-1.79 145.01-3.10L145.01-3.10L145.01-3.10Q144.67-4.42 144.67-6.56L144.67-6.56L144.67-6.56Q144.67-8.70 145.41-10.66L145.41-10.66L145.41-10.66Q146.14-12.61 147.49-14.02L147.49-14.02L147.49-14.02Q150.24-16.96 154.78-16.96L154.78-16.96L154.78-16.96Q156.42-16.96 157.60-16.42L157.60-16.42L163.07-16.96L160.70-4.48L160.70-4.48Q160.61-4.10 160.61-3.39L160.61-3.39L160.61-3.39Q160.61-2.69 161.04-2.24L161.04-2.24L161.04-2.24Q161.47-1.79 162.11-1.73L162.11-1.73L162.11-1.73Q161.79-0.64 160.62 0L160.62 0L160.62 0Q159.46 0.64 158.14 0.64L158.14 0.64L158.14 0.64Q156.83 0.64 155.95 0.14L155.95 0.14L155.95 0.14Q155.07-0.35 154.82-1.18L154.82-1.18L154.82-1.18Q154.30-0.38 153.22 0.13L153.22 0.13L153.22 0.13Q152.13 0.64 150.67 0.64L150.67 0.64L150.67 0.64Q149.22 0.64 148.03 0.26L148.03 0.26L148.03 0.26Q146.85-0.13 146.10-0.96ZM152.85-13.95L152.85-13.95L152.85-13.95Q152.48-13.38 152.16-12.40L152.16-12.40L152.16-12.40Q151.84-11.42 151.31-8.82L151.31-8.82L151.31-8.82Q150.78-6.21 150.78-4.35L150.78-4.35L150.78-4.35Q150.78-2.50 151.07-1.95L151.07-1.95L151.07-1.95Q151.36-1.41 151.87-1.41L151.87-1.41L151.87-1.41Q152.90-1.41 153.65-2.38L153.65-2.38L153.65-2.38Q154.40-3.36 154.69-5.09L154.69-5.09L156.38-14.46L156.38-14.46Q155.71-15.04 154.93-15.04L154.93-15.04L154.93-15.04Q154.14-15.04 153.68-14.78L153.68-14.78L153.68-14.78Q153.22-14.53 152.85-13.95ZM172.45-1.76L172.45-1.76L172.45-1.76Q171.46 0.64 168.29 0.64L168.29 0.64L168.29 0.64Q166.69 0.64 165.66-0.48L165.66-0.48L165.66-0.48Q164.83-1.41 164.83-2.46L164.83-2.46L164.83-2.46Q164.83-4.86 165.95-10.11L165.95-10.11L168.29-22.40L174.78-23.04L171.68-6.85L171.68-6.85Q171.14-4.48 171.14-3.65L171.14-3.65L171.14-3.65Q171.14-1.82 172.45-1.76ZM191.26-3.55L191.26-3.55L191.26-3.55Q191.26-2.14 192.70-1.73L192.70-1.73L192.70-1.73Q192.35-0.54 190.98 0.10L190.98 0.10L190.98 0.10Q189.82 0.64 188.56 0.64L188.56 0.64L188.56 0.64Q187.30 0.64 186.64 0.30L186.64 0.30L186.64 0.30Q185.98-0.03 185.63-0.58L185.63-0.58L185.63-0.58Q185.06-1.41 185.06-2.98L185.06-2.98L185.06-2.98Q185.06-3.90 185.57-6.46L185.57-6.46L186.02-8.90L186.02-8.90Q186.56-11.68 186.56-12.70L186.56-12.70L186.56-12.70Q186.56-14.50 185.57-14.50L185.57-14.50L185.57-14.50Q184.32-14.50 183.52-12.67L183.52-12.67L183.52-12.67Q183.20-11.97 182.98-10.91L182.98-10.91L180.80 0L174.37 0.64L178.88-22.40L185.31-23.04L185.06-21.76L185.06-21.76Q184.16-16.83 183.39-15.17L183.39-15.17L183.39-15.17Q185.18-16.96 188.48-16.96L188.48-16.96L188.48-16.96Q191.97-16.96 192.61-14.66L192.61-14.66L192.61-14.66Q192.83-13.92 192.83-13.28L192.83-13.28L192.83-13.28Q192.83-12.64 192.78-12.14L192.78-12.14L192.78-12.14Q192.74-11.65 192.58-10.75L192.58-10.75L192.16-8.45L191.42-4.83L191.42-4.83Q191.26-4.10 191.26-3.55ZM202.27 0.64L202.27 0.64L202.27 0.64Q195.23 0.64 195.23-5.98L195.23-5.98L195.23-5.98Q195.23-10.69 197.82-13.73L197.82-13.73L197.82-13.73Q200.58-16.96 205.34-16.96L205.34-16.96L205.34-16.96Q208.80-16.96 210.56-15.36L210.56-15.36L210.56-15.36Q212.32-13.76 212.32-10.40L212.32-10.40L212.32-10.40Q212.32-5.28 209.57-2.30L209.57-2.30L209.57-2.30Q206.88 0.64 202.27 0.64ZM203.10-13.28L203.10-13.28L203.10-13.28Q202.72-12.42 202.42-11.12L202.42-11.12L202.42-11.12Q202.11-9.82 201.73-7.78L201.73-7.78L201.73-7.78Q201.34-5.73 201.34-3.20L201.34-3.20L201.34-3.20Q201.34-2.37 201.62-1.82L201.62-1.82L201.62-1.82Q201.89-1.28 202.62-1.28L202.62-1.28L202.62-1.28Q203.36-1.28 203.82-1.63L203.82-1.63L203.82-1.63Q204.29-1.98 204.64-2.82L204.64-2.82L204.64-2.82Q205.28-4.29 205.79-7.02L205.79-7.02L205.79-7.02Q206.30-9.76 206.35-10.94L206.35-10.94L206.35-10.94Q206.40-12.13 206.40-13.01L206.40-13.01L206.40-13.01Q206.40-13.89 206.14-14.46L206.14-14.46L206.14-14.46Q205.89-15.04 205.17-15.04L205.17-15.04L205.17-15.04Q204.45-15.04 203.97-14.59L203.97-14.59L203.97-14.59Q203.49-14.14 203.10-13.28ZM233.31-21.34L233.31-21.34L233.31-21.34Q241.15-21.34 241.15-15.81L241.15-15.81L241.15-15.81Q241.15-12.77 239.20-10.94L239.20-10.94L239.20-10.94Q237.28-9.12 233.92-9.12L233.92-9.12L233.92-9.12Q232.35-9.12 231.14-10.02L231.14-10.02L231.14-10.02Q230.56-10.40 230.18-10.91L230.18-10.91L230.18-10.91Q232.51-10.91 233.74-12.34L233.74-12.34L233.74-12.34Q234.98-13.76 234.98-16.54L234.98-16.54L234.98-16.54Q234.98-19.33 232.22-19.33L232.22-19.33L231.46-19.33L231.46-19.33Q231.26-19.33 231.10-19.30L231.10-19.30L227.42 0L220.48 0L224.42-20.96L224.42-20.96Q227.84-21.28 229.82-21.31L229.82-21.31L229.82-21.31Q231.81-21.34 233.31-21.34ZM254.27-5.41L254.27-5.41L254.27-5.41Q255.07-4.86 255.07-3.66L255.07-3.66L255.07-3.66Q255.07-2.46 254.46-1.70L254.46-1.70L254.46-1.70Q253.86-0.93 252.86-0.42L252.86-0.42L252.86-0.42Q250.82 0.64 248.61 0.64L248.61 0.64L248.61 0.64Q246.40 0.64 245.10 0.16L245.10 0.16L245.10 0.16Q243.81-0.32 242.94-1.22L242.94-1.22L242.94-1.22Q241.25-2.91 241.25-6.02L241.25-6.02L241.25-6.02Q241.25-10.85 243.87-13.79L243.87-13.79L243.87-13.79Q246.69-16.96 251.58-16.96L251.58-16.96L251.58-16.96Q254.62-16.96 256.13-15.68L256.13-15.68L256.13-15.68Q257.25-14.72 257.25-13.15L257.25-13.15L257.25-13.15Q257.25-7.52 247.52-7.52L247.52-7.52L247.52-7.52Q247.39-6.69 247.39-5.98L247.39-5.98L247.39-5.98Q247.39-4.51 248.05-3.95L248.05-3.95L248.05-3.95Q248.70-3.39 249.92-3.39L249.92-3.39L249.92-3.39Q251.14-3.39 252.43-3.95L252.43-3.95L252.43-3.95Q253.73-4.51 254.27-5.41ZM247.74-8.90L247.74-8.90L247.74-8.90Q250.02-8.90 251.33-10.30L251.33-10.30L251.33-10.30Q252.64-11.65 252.64-13.79L252.64-13.79L252.64-13.79Q252.64-14.53 252.37-14.93L252.37-14.93L252.37-14.93Q252.10-15.33 251.55-15.33L251.55-15.33L251.55-15.33Q251.01-15.33 250.54-15.12L250.54-15.12L250.54-15.12Q250.08-14.91 249.60-14.21L249.60-14.21L249.60-14.21Q248.42-12.61 247.74-8.90ZM268.35-8.99L268.35-8.99L268.35-8.99Q269.50-11.04 269.50-13.12L269.50-13.12L269.50-13.12Q269.50-14.50 268.51-14.50L268.51-14.50L268.51-14.50Q267.74-14.50 266.94-13.18L266.94-13.18L266.94-13.18Q266.11-11.87 265.86-10.18L265.86-10.18L264.19 0L257.57 0.64L260.83-16.32L266.11-16.96L265.54-13.73L265.54-13.73Q267.10-16.96 270.62-16.96L270.62-16.96L270.62-16.96Q272.48-16.96 273.49-16L273.49-16L273.49-16Q274.50-15.04 274.50-13.07L274.50-13.07L274.50-13.07Q274.50-11.10 273.20-9.86L273.20-9.86L273.20-9.86Q271.90-8.61 269.70-8.61L269.70-8.61L269.70-8.61Q268.74-8.61 268.35-8.99ZM284.58-11.23L284.58-11.23L284.58-11.23Q285.02-12.42 285.02-13.44L285.02-13.44L285.02-13.44Q285.02-15.33 283.49-15.33L283.49-15.33L283.49-15.33Q282.69-15.33 282.03-14.61L282.03-14.61L282.03-14.61Q281.38-13.89 281.38-12.99L281.38-12.99L281.38-12.99Q281.38-12.35 281.89-11.84L281.89-11.84L281.89-11.84Q282.62-11.14 284.51-9.98L284.51-9.98L284.51-9.98Q286.40-8.83 287.12-7.89L287.12-7.89L287.12-7.89Q287.84-6.94 287.84-5.65L287.84-5.65L287.84-5.65Q287.84-4.35 287.22-3.17L287.22-3.17L287.22-3.17Q286.59-1.98 285.47-1.15L285.47-1.15L285.47-1.15Q283.07 0.64 279.23 0.64L279.23 0.64L279.23 0.64Q277.15 0.64 275.55-0.45L275.55-0.45L275.55-0.45Q273.95-1.50 273.95-2.75L273.95-2.75L273.95-2.75Q273.95-4 274.86-4.74L274.86-4.74L274.86-4.74Q275.78-5.47 277.12-5.47L277.12-5.47L277.12-5.47Q278.46-5.47 279.30-4.96L279.30-4.96L279.30-4.96Q278.88-3.90 278.88-3.20L278.88-3.20L278.88-3.20Q278.88-1.09 280.67-1.09L280.67-1.09L280.67-1.09Q281.44-1.09 281.95-1.57L281.95-1.57L281.95-1.57Q282.46-2.05 282.46-2.88L282.46-2.88L282.46-2.88Q282.46-4.51 279.71-6.24L279.71-6.24L279.71-6.24Q277.47-7.71 276.96-8.29L276.96-8.29L276.96-8.29Q276.10-9.31 276.10-10.59L276.10-10.59L276.10-10.59Q276.10-11.87 276.70-13.09L276.70-13.09L276.70-13.09Q277.31-14.30 278.43-15.17L278.43-15.17L278.43-15.17Q280.77-16.96 284.83-16.96L284.83-16.96L284.83-16.96Q286.91-16.96 288.14-16.13L288.14-16.13L288.14-16.13Q289.38-15.30 289.38-13.89L289.38-13.89L289.38-13.89Q289.38-12.48 288.53-11.68L288.53-11.68L288.53-11.68Q287.68-10.88 286.14-10.88L286.14-10.88L286.14-10.88Q285.09-10.88 284.58-11.23ZM297.54 0.64L297.54 0.64L297.54 0.64Q290.50 0.64 290.50-5.98L290.50-5.98L290.50-5.98Q290.50-10.69 293.09-13.73L293.09-13.73L293.09-13.73Q295.84-16.96 300.61-16.96L300.61-16.96L300.61-16.96Q304.06-16.96 305.82-15.36L305.82-15.36L305.82-15.36Q307.58-13.76 307.58-10.40L307.58-10.40L307.58-10.40Q307.58-5.28 304.83-2.30L304.83-2.30L304.83-2.30Q302.14 0.64 297.54 0.64ZM298.37-13.28L298.37-13.28L298.37-13.28Q297.98-12.42 297.68-11.12L297.68-11.12L297.68-11.12Q297.38-9.82 296.99-7.78L296.99-7.78L296.99-7.78Q296.61-5.73 296.61-3.20L296.61-3.20L296.61-3.20Q296.61-2.37 296.88-1.82L296.88-1.82L296.88-1.82Q297.15-1.28 297.89-1.28L297.89-1.28L297.89-1.28Q298.62-1.28 299.09-1.63L299.09-1.63L299.09-1.63Q299.55-1.98 299.90-2.82L299.90-2.82L299.90-2.82Q300.54-4.29 301.06-7.02L301.06-7.02L301.06-7.02Q301.57-9.76 301.62-10.94L301.62-10.94L301.62-10.94Q301.66-12.13 301.66-13.01L301.66-13.01L301.66-13.01Q301.66-13.89 301.41-14.46L301.41-14.46L301.41-14.46Q301.15-15.04 300.43-15.04L300.43-15.04L300.43-15.04Q299.71-15.04 299.23-14.59L299.23-14.59L299.23-14.59Q298.75-14.14 298.37-13.28ZM323.01 0.64L323.01 0.64L323.01 0.64Q319.14 0.64 319.14-2.37L319.14-2.37L319.14-2.37Q319.17-3.20 319.42-4.61L319.42-4.61L320.00-7.55L320.00-7.55Q320.86-11.71 320.86-12.64L320.86-12.64L320.86-12.64Q320.86-14.50 319.78-14.50L319.78-14.50L319.78-14.50Q317.95-14.50 316.99-9.73L316.99-9.73L315.10 0L308.67 0.64L312.00-16.35L317.25-16.96L316.74-13.82L316.74-13.82Q318.24-16.96 322.85-16.96L322.85-16.96L322.85-16.96Q325.09-16.96 326.03-16.02L326.03-16.02L326.03-16.02Q326.98-15.07 326.98-12.96L326.98-12.96L326.98-12.96Q326.98-10.98 325.95-6.34L325.95-6.34L325.95-6.34Q325.47-4.26 325.47-3.47L325.47-3.47L325.47-3.47Q325.47-2.69 325.90-2.24L325.90-2.24L325.90-2.24Q326.34-1.79 326.98-1.73L326.98-1.73L326.98-1.73Q326.66-0.64 325.55 0L325.55 0L325.55 0Q324.45 0.64 323.01 0.64ZM330.93-0.96L330.93-0.96L330.93-0.96Q330.18-1.79 329.84-3.10L329.84-3.10L329.84-3.10Q329.50-4.42 329.50-6.56L329.50-6.56L329.50-6.56Q329.50-8.70 330.24-10.66L330.24-10.66L330.24-10.66Q330.98-12.61 332.32-14.02L332.32-14.02L332.32-14.02Q335.07-16.96 339.62-16.96L339.62-16.96L339.62-16.96Q341.25-16.96 342.43-16.42L342.43-16.42L347.90-16.96L345.54-4.48L345.54-4.48Q345.44-4.10 345.44-3.39L345.44-3.39L345.44-3.39Q345.44-2.69 345.87-2.24L345.87-2.24L345.87-2.24Q346.30-1.79 346.94-1.73L346.94-1.73L346.94-1.73Q346.62-0.64 345.46 0L345.46 0L345.46 0Q344.29 0.64 342.98 0.64L342.98 0.64L342.98 0.64Q341.66 0.64 340.78 0.14L340.78 0.14L340.78 0.14Q339.90-0.35 339.65-1.18L339.65-1.18L339.65-1.18Q339.14-0.38 338.05 0.13L338.05 0.13L338.05 0.13Q336.96 0.64 335.50 0.64L335.50 0.64L335.50 0.64Q334.05 0.64 332.86 0.26L332.86 0.26L332.86 0.26Q331.68-0.13 330.93-0.96ZM337.68-13.95L337.68-13.95L337.68-13.95Q337.31-13.38 336.99-12.40L336.99-12.40L336.99-12.40Q336.67-11.42 336.14-8.82L336.14-8.82L336.14-8.82Q335.62-6.21 335.62-4.35L335.62-4.35L335.62-4.35Q335.62-2.50 335.90-1.95L335.90-1.95L335.90-1.95Q336.19-1.41 336.70-1.41L336.70-1.41L336.70-1.41Q337.73-1.41 338.48-2.38L338.48-2.38L338.48-2.38Q339.23-3.36 339.52-5.09L339.52-5.09L341.22-14.46L341.22-14.46Q340.54-15.04 339.76-15.04L339.76-15.04L339.76-15.04Q338.98-15.04 338.51-14.78L338.51-14.78L338.51-14.78Q338.05-14.53 337.68-13.95ZM357.28-1.76L357.28-1.76L357.28-1.76Q356.29 0.64 353.12 0.64L353.12 0.64L353.12 0.64Q351.52 0.64 350.50-0.48L350.50-0.48L350.50-0.48Q349.66-1.41 349.66-2.46L349.66-2.46L349.66-2.46Q349.66-4.86 350.78-10.11L350.78-10.11L353.12-22.40L359.62-23.04L356.51-6.85L356.51-6.85Q355.97-4.48 355.97-3.65L355.97-3.65L355.97-3.65Q355.97-1.82 357.28-1.76ZM367.39-19.84L367.39-19.84L367.39-19.84Q367.84-20.74 368.82-21.23L368.82-21.23L368.82-21.23Q369.79-21.73 371.14-21.73L371.14-21.73L371.14-21.73Q373.25-21.73 374.51-20.21L374.51-20.21L374.51-20.21Q375.78-18.69 375.78-15.36L375.78-15.36L375.78-3.94L383.10-21.09L386.88-21.09L387.74-4.90L387.65-3.97L395.26-21.09L399.65-21.09L389.41 0L382.59 0L381.95-9.73L377.73 0L370.02 0L369.06-15.36L369.06-15.36Q368.96-17.09 368.50-18.22L368.50-18.22L368.50-18.22Q368.03-19.36 367.39-19.84ZM410.69-5.41L410.69-5.41L410.69-5.41Q411.49-4.86 411.49-3.66L411.49-3.66L411.49-3.66Q411.49-2.46 410.88-1.70L410.88-1.70L410.88-1.70Q410.27-0.93 409.28-0.42L409.28-0.42L409.28-0.42Q407.23 0.64 405.02 0.64L405.02 0.64L405.02 0.64Q402.82 0.64 401.52 0.16L401.52 0.16L401.52 0.16Q400.22-0.32 399.36-1.22L399.36-1.22L399.36-1.22Q397.66-2.91 397.66-6.02L397.66-6.02L397.66-6.02Q397.66-10.85 400.29-13.79L400.29-13.79L400.29-13.79Q403.10-16.96 408.00-16.96L408.00-16.96L408.00-16.96Q411.04-16.96 412.54-15.68L412.54-15.68L412.54-15.68Q413.66-14.72 413.66-13.15L413.66-13.15L413.66-13.15Q413.66-7.52 403.94-7.52L403.94-7.52L403.94-7.52Q403.81-6.69 403.81-5.98L403.81-5.98L403.81-5.98Q403.81-4.51 404.46-3.95L404.46-3.95L404.46-3.95Q405.12-3.39 406.34-3.39L406.34-3.39L406.34-3.39Q407.55-3.39 408.85-3.95L408.85-3.95L408.85-3.95Q410.14-4.51 410.69-5.41ZM404.16-8.90L404.16-8.90L404.16-8.90Q406.43-8.90 407.74-10.30L407.74-10.30L407.74-10.30Q409.06-11.65 409.06-13.79L409.06-13.79L409.06-13.79Q409.06-14.53 408.78-14.93L408.78-14.93L408.78-14.93Q408.51-15.33 407.97-15.33L407.97-15.33L407.97-15.33Q407.42-15.33 406.96-15.12L406.96-15.12L406.96-15.12Q406.50-14.91 406.02-14.21L406.02-14.21L406.02-14.21Q404.83-12.61 404.16-8.90ZM414.34-1.54L414.34-1.54L418.30-22.40L424.80-23.04L423.81-18.14L423.81-18.14Q423.46-16.64 423.01-15.58L423.01-15.58L423.01-15.58Q423.71-16.48 425.25-16.83L425.25-16.83L425.25-16.83Q425.70-16.96 426.24-16.96L426.24-16.96L426.24-16.96Q429.22-16.96 430.85-15.15L430.85-15.15L430.85-15.15Q432.48-13.34 432.48-9.86L432.48-9.86L432.48-9.86Q432.48-5.31 429.89-2.46L429.89-2.46L429.89-2.46Q427.10 0.64 422.05 0.64L422.05 0.64L422.05 0.64Q418.56 0.64 415.94-0.51L415.94-0.51L415.94-0.51Q415.01-0.93 414.34-1.54ZM422.46-11.20L420.77-1.82L420.77-1.82Q421.44-1.25 422.27-1.25L422.27-1.25L422.27-1.25Q423.10-1.25 423.58-1.57L423.58-1.57L423.58-1.57Q424.06-1.89 424.42-2.53L424.42-2.53L424.42-2.53Q425.38-4.26 426.14-9.54L426.14-9.54L426.14-9.54Q426.37-11.04 426.37-12.54L426.37-12.54L426.37-12.54Q426.37-14.05 426.03-14.53L426.03-14.53L426.03-14.53Q425.70-15.01 425.06-15.01L425.06-15.01L425.06-15.01Q423.10-15.01 422.46-11.20L422.46-11.20ZM443.97-11.23L443.97-11.23L443.97-11.23Q444.42-12.42 444.42-13.44L444.42-13.44L444.42-13.44Q444.42-15.33 442.88-15.33L442.88-15.33L442.88-15.33Q442.08-15.33 441.42-14.61L441.42-14.61L441.42-14.61Q440.77-13.89 440.77-12.99L440.77-12.99L440.77-12.99Q440.77-12.35 441.28-11.84L441.28-11.84L441.28-11.84Q442.02-11.14 443.90-9.98L443.90-9.98L443.90-9.98Q445.79-8.83 446.51-7.89L446.51-7.89L446.51-7.89Q447.23-6.94 447.23-5.65L447.23-5.65L447.23-5.65Q447.23-4.35 446.61-3.17L446.61-3.17L446.61-3.17Q445.98-1.98 444.86-1.15L444.86-1.15L444.86-1.15Q442.46 0.64 438.62 0.64L438.62 0.64L438.62 0.64Q436.54 0.64 434.94-0.45L434.94-0.45L434.94-0.45Q433.34-1.50 433.34-2.75L433.34-2.75L433.34-2.75Q433.34-4 434.26-4.74L434.26-4.74L434.26-4.74Q435.17-5.47 436.51-5.47L436.51-5.47L436.51-5.47Q437.86-5.47 438.69-4.96L438.69-4.96L438.69-4.96Q438.27-3.90 438.27-3.20L438.27-3.20L438.27-3.20Q438.27-1.09 440.06-1.09L440.06-1.09L440.06-1.09Q440.83-1.09 441.34-1.57L441.34-1.57L441.34-1.57Q441.86-2.05 441.86-2.88L441.86-2.88L441.86-2.88Q441.86-4.51 439.10-6.24L439.10-6.24L439.10-6.24Q436.86-7.71 436.35-8.29L436.35-8.29L436.35-8.29Q435.49-9.31 435.49-10.59L435.49-10.59L435.49-10.59Q435.49-11.87 436.10-13.09L436.10-13.09L436.10-13.09Q436.70-14.30 437.82-15.17L437.82-15.17L437.82-15.17Q440.16-16.96 444.22-16.96L444.22-16.96L444.22-16.96Q446.30-16.96 447.54-16.13L447.54-16.13L447.54-16.13Q448.77-15.30 448.77-13.89L448.77-13.89L448.77-13.89Q448.77-12.48 447.92-11.68L447.92-11.68L447.92-11.68Q447.07-10.88 445.54-10.88L445.54-10.88L445.54-10.88Q444.48-10.88 443.97-11.23ZM457.63-1.76L457.63-1.76L457.63-1.76Q456.64 0.64 453.47 0.64L453.47 0.64L453.47 0.64Q451.84 0.64 450.82-0.48L450.82-0.48L450.82-0.48Q449.95-1.47 449.95-2.46L449.95-2.46L449.95-2.46Q449.95-5.06 451.14-10.11L451.14-10.11L452.32-16.32L458.82-16.96L456.86-6.85L456.86-6.85Q456.32-4.48 456.32-3.65L456.32-3.65L456.32-3.65Q456.32-1.82 457.63-1.76ZM452.90-20.77L452.90-20.77L452.90-20.77Q452.90-22.02 453.94-22.69L453.94-22.69L453.94-22.69Q454.98-23.36 456.48-23.36L456.48-23.36L456.48-23.36Q457.98-23.36 458.90-22.69L458.90-22.69L458.90-22.69Q459.81-22.02 459.81-20.77L459.81-20.77L459.81-20.77Q459.81-19.52 458.80-18.88L458.80-18.88L458.80-18.88Q457.79-18.24 456.29-18.24L456.29-18.24L456.29-18.24Q454.78-18.24 453.84-18.88L453.84-18.88L453.84-18.88Q452.90-19.52 452.90-20.77ZM460.86-3.20L460.86-3.20L460.86-3.20Q460.86-4.06 461.31-6.24L461.31-6.24L463.01-14.88L461.12-14.88L461.25-15.84L461.25-15.84Q465.09-16.99 468.80-19.81L468.80-19.81L470.34-19.81L469.57-16.32L472.06-16.32L471.78-14.88L469.31-14.88L467.68-6.24L467.68-6.24Q467.26-4.26 467.26-3.58L467.26-3.58L467.26-3.58Q467.26-2.05 468.61-1.73L468.61-1.73L468.61-1.73Q468.29-0.64 467.14 0L467.14 0L467.14 0Q465.98 0.64 464.35 0.64L464.35 0.64L464.35 0.64Q462.72 0.64 461.79-0.38L461.79-0.38L461.79-0.38Q460.86-1.41 460.86-3.20ZM484.74-5.41L484.74-5.41L484.74-5.41Q485.54-4.86 485.54-3.66L485.54-3.66L485.54-3.66Q485.54-2.46 484.93-1.70L484.93-1.70L484.93-1.70Q484.32-0.93 483.33-0.42L483.33-0.42L483.33-0.42Q481.28 0.64 479.07 0.64L479.07 0.64L479.07 0.64Q476.86 0.64 475.57 0.16L475.57 0.16L475.57 0.16Q474.27-0.32 473.41-1.22L473.41-1.22L473.41-1.22Q471.71-2.91 471.71-6.02L471.71-6.02L471.71-6.02Q471.71-10.85 474.34-13.79L474.34-13.79L474.34-13.79Q477.15-16.96 482.05-16.96L482.05-16.96L482.05-16.96Q485.09-16.96 486.59-15.68L486.59-15.68L486.59-15.68Q487.71-14.72 487.71-13.15L487.71-13.15L487.71-13.15Q487.71-7.52 477.98-7.52L477.98-7.52L477.98-7.52Q477.86-6.69 477.86-5.98L477.86-5.98L477.86-5.98Q477.86-4.51 478.51-3.95L478.51-3.95L478.51-3.95Q479.17-3.39 480.38-3.39L480.38-3.39L480.38-3.39Q481.60-3.39 482.90-3.95L482.90-3.95L482.90-3.95Q484.19-4.51 484.74-5.41ZM478.21-8.90L478.21-8.90L478.21-8.90Q480.48-8.90 481.79-10.30L481.79-10.30L481.79-10.30Q483.10-11.65 483.10-13.79L483.10-13.79L483.10-13.79Q483.10-14.53 482.83-14.93L482.83-14.93L482.83-14.93Q482.56-15.33 482.02-15.33L482.02-15.33L482.02-15.33Q481.47-15.33 481.01-15.12L481.01-15.12L481.01-15.12Q480.54-14.91 480.06-14.21L480.06-14.21L480.06-14.21Q478.88-12.61 478.21-8.90Z" fill="#00a139"></path></g></g><style>text {
  font-size: 64px;
  font-family: Arial Black;
  dominant-baseline: central;
  text-anchor: middle;
}</style></svg>