<svg width="1348.006396484375px" height="122px" xmlns="http://www.w3.org/2000/svg" viewBox="-424.0031982421875 14 1348.006396484375 122" style="background: none;" preserveAspectRatio="xMidYMid"><defs><filter id="editing-extrude-glow"><feFlood flood-color="#96be8e" result="flood-1"></feFlood><feMorphology operator="erode" radius="1" in="SourceAlpha" result="erode"></feMorphology><feComposite operator="in" in="flood-1" in2="erode" result="comp1"></feComposite><feConvolveMatrix order="3,3" divisor="1" in="comp1" result="convolve" kernelMatrix="0 0 0 1 1 1 0 0 0"></feConvolveMatrix><feOffset dx="-3" dy="0" in="convolve" result="extrude"></feOffset><feComposite operator="in" in="flood-1" in2="extrude" result="comp-extrude"></feComposite><feFlood flood-color="#dce4eb" result="flood-2"></feFlood><feComposite operator="in" in="flood-2" in2="SourceAlpha" result="comp2"></feComposite><feMorphology operator="dilate" radius="1" in="comp2" result="dilate"></feMorphology><feOffset dx="-4.5" dy="0" in="dilate" result="offset"></feOffset><feGaussianBlur in="offset" stdDeviation="5.8" result="blur"></feGaussianBlur><feComponentTransfer in="blur" result="shadow"><feFuncA type="linear" slope="0.8" intercept="-0.2"></feFuncA></feComponentTransfer><feMerge><feMergeNode in="shadow"></feMergeNode><feMergeNode in="comp-extrude"></feMergeNode><feMergeNode in="SourceGraphic"></feMergeNode></feMerge></filter></defs><g filter="url(#editing-extrude-glow)"><g transform="translate(-237.99995237588882, 99)"><path d="M27.84-9.86L27.84-9.86L27.84-9.86Q29.06-8.32 29.06-5.34L29.06-5.34L29.06-5.34Q29.06-2.37 26.78-0.54L26.78-0.54L26.78-0.54Q24.51 1.28 20.54 1.28L20.54 1.28L20.54 1.28Q18.24 1.28 14.66 0.77L14.66 0.77L14.66 0.77Q7.62-0.32 5.60-0.32L5.60-0.32L5.60-0.32Q3.58-0.32 2.75-0.22L2.75-0.22L2.75-0.22Q1.92-0.13 0.58 0L0.58 0L8.32-42.24L22.34-42.24L15.94-7.04L15.94-7.04Q16.77-6.91 17.54-6.91L17.54-6.91L19.14-6.91L19.14-6.91Q24.51-6.91 27.84-9.86ZM53.89-2.69L53.89-2.69L53.89-2.69Q50.82 1.28 43.20 1.28L43.20 1.28L43.20 1.28Q39.23 1.28 36.35-1.12L36.35-1.12L36.35-1.12Q33.47-3.52 33.47-6.98L33.47-6.98L33.47-6.98Q33.47-8.90 33.66-9.86L33.66-9.86L37.95-32.64L50.94-33.92L46.27-9.22L46.27-9.22Q46.02-7.81 46.02-6.98L46.02-6.98L46.02-6.98Q46.02-3.26 48.26-3.26L48.26-3.26L48.26-3.26Q50.75-3.26 52.54-6.66L52.54-6.66L52.54-6.66Q53.12-7.74 53.38-9.15L53.38-9.15L57.92-32.64L70.53-33.92L65.79-8.96L65.79-8.96Q65.60-8 65.60-6.98L65.60-6.98L65.60-6.98Q65.60-5.95 66.18-4.83L66.18-4.83L66.18-4.83Q66.75-3.71 68.61-3.46L68.61-3.46L68.61-3.46Q68.22-1.92 66.88-0.90L66.88-0.90L66.88-0.90Q64.06 1.28 61.02 1.28L61.02 1.28L61.02 1.28Q57.98 1.28 56.19 0.19L56.19 0.19L56.19 0.19Q54.40-0.90 53.89-2.69ZM89.34-3.52L89.34-3.52L89.34-3.52Q87.36 1.28 81.02 1.28L81.02 1.28L81.02 1.28Q77.76 1.28 75.71-0.96L75.71-0.96L75.71-0.96Q73.98-2.94 73.98-4.93L73.98-4.93L73.98-4.93Q73.98-10.11 76.35-20.22L76.35-20.22L78.72-32.64L91.71-33.92L87.81-13.70L87.81-13.70Q86.72-8.96 86.72-7.30L86.72-7.30L86.72-7.30Q86.72-3.65 89.34-3.52ZM79.87-41.54L79.87-41.54L79.87-41.54Q79.87-44.03 81.95-45.38L81.95-45.38L81.95-45.38Q84.03-46.72 87.04-46.72L87.04-46.72L87.04-46.72Q90.05-46.72 91.87-45.38L91.87-45.38L91.87-45.38Q93.70-44.03 93.70-41.54L93.70-41.54L93.70-41.54Q93.70-39.04 91.68-37.76L91.68-37.76L91.68-37.76Q89.66-36.48 86.66-36.48L86.66-36.48L86.66-36.48Q83.65-36.48 81.76-37.76L81.76-37.76L81.76-37.76Q79.87-39.04 79.87-41.54ZM113.92-22.46L113.92-22.46L113.92-22.46Q114.82-24.83 114.82-26.88L114.82-26.88L114.82-26.88Q114.82-30.66 111.74-30.66L111.74-30.66L111.74-30.66Q110.14-30.66 108.83-29.22L108.83-29.22L108.83-29.22Q107.52-27.78 107.52-25.98L107.52-25.98L107.52-25.98Q107.52-24.70 108.54-23.68L108.54-23.68L108.54-23.68Q110.02-22.27 113.79-19.97L113.79-19.97L113.79-19.97Q117.57-17.66 119.01-15.78L119.01-15.78L119.01-15.78Q120.45-13.89 120.45-11.30L120.45-11.30L120.45-11.30Q120.45-8.70 119.20-6.34L119.20-6.34L119.20-6.34Q117.95-3.97 115.71-2.30L115.71-2.30L115.71-2.30Q110.91 1.28 103.23 1.28L103.23 1.28L103.23 1.28Q99.07 1.28 95.87-0.90L95.87-0.90L95.87-0.90Q92.67-3.01 92.67-5.50L92.67-5.50L92.67-5.50Q92.67-8 94.50-9.47L94.50-9.47L94.50-9.47Q96.32-10.94 99.01-10.94L99.01-10.94L99.01-10.94Q101.70-10.94 103.36-9.92L103.36-9.92L103.36-9.92Q102.53-7.81 102.53-6.40L102.53-6.40L102.53-6.40Q102.53-2.18 106.11-2.18L106.11-2.18L106.11-2.18Q107.65-2.18 108.67-3.14L108.67-3.14L108.67-3.14Q109.70-4.10 109.70-5.76L109.70-5.76L109.70-5.76Q109.70-9.02 104.19-12.48L104.19-12.48L104.19-12.48Q99.71-15.42 98.69-16.58L98.69-16.58L98.69-16.58Q96.96-18.62 96.96-21.18L96.96-21.18L96.96-21.18Q96.96-23.74 98.18-26.18L98.18-26.18L98.18-26.18Q99.39-28.61 101.63-30.34L101.63-30.34L101.63-30.34Q106.30-33.92 114.43-33.92L114.43-33.92L114.43-33.92Q118.59-33.92 121.06-32.26L121.06-32.26L121.06-32.26Q123.52-30.59 123.52-27.78L123.52-27.78L123.52-27.78Q123.52-24.96 121.82-23.36L121.82-23.36L121.82-23.36Q120.13-21.76 117.06-21.76L117.06-21.76L117.06-21.76Q114.94-21.76 113.92-22.46ZM172.48-13.25L172.48-13.25L172.48-13.25Q174.14-12.03 174.14-9.44L174.14-9.44L174.14-9.44Q174.14-6.85 173.02-5.02L173.02-5.02L173.02-5.02Q171.90-3.20 169.73-1.79L169.73-1.79L169.73-1.79Q165.06 1.22 156.90 1.22L156.90 1.22L156.90 1.22Q148.74 1.22 144.29-3.04L144.29-3.04L144.29-3.04Q139.84-7.30 139.84-14.85L139.84-14.85L139.84-14.85Q139.84-25.54 145.41-33.66L145.41-33.66L145.41-33.66Q149.63-39.68 157.18-42.24L157.18-42.24L157.18-42.24Q161.09-43.52 164.93-43.52L164.93-43.52L164.93-43.52Q168.77-43.52 171.14-43.01L171.14-43.01L171.14-43.01Q173.50-42.50 175.30-41.47L175.30-41.47L175.30-41.47Q179.20-39.23 179.20-35.65L179.20-35.65L179.20-35.65Q179.20-32.38 176.13-29.95L176.13-29.95L176.13-29.95Q173.31-27.78 171.01-27.78L171.01-27.78L171.01-27.78Q168.70-27.78 167.74-28.10L167.74-28.10L167.74-28.10Q168-30.40 168-31.90L168-31.90L168-31.90Q168-33.41 167.94-34.50L167.94-34.50L167.94-34.50Q167.87-35.58 167.55-36.61L167.55-36.61L167.55-36.61Q166.91-38.98 164.96-38.98L164.96-38.98L164.96-38.98Q163.01-38.98 161.06-37.15L161.06-37.15L161.06-37.15Q159.10-35.33 157.44-32.26L157.44-32.26L157.44-32.26Q153.66-25.28 153.66-17.02L153.66-17.02L153.66-17.02Q153.66-13.06 155.90-10.78L155.90-10.78L155.90-10.78Q158.14-8.51 162.94-8.51L162.94-8.51L162.94-8.51Q166.53-8.51 169.92-10.88L169.92-10.88L169.92-10.88Q171.39-11.90 172.48-13.25ZM182.24-1.92L182.24-1.92L182.24-1.92Q180.74-3.58 180.06-6.21L180.06-6.21L180.06-6.21Q179.39-8.83 179.39-13.12L179.39-13.12L179.39-13.12Q179.39-17.41 180.86-21.31L180.86-21.31L180.86-21.31Q182.34-25.22 185.02-28.03L185.02-28.03L185.02-28.03Q190.53-33.92 199.62-33.92L199.62-33.92L199.62-33.92Q202.88-33.92 205.25-32.83L205.25-32.83L216.19-33.92L211.46-8.96L211.46-8.96Q211.26-8.19 211.26-6.78L211.26-6.78L211.26-6.78Q211.26-5.38 212.13-4.48L212.13-4.48L212.13-4.48Q212.99-3.58 214.27-3.46L214.27-3.46L214.27-3.46Q213.63-1.28 211.30 0L211.30 0L211.30 0Q208.96 1.28 206.34 1.28L206.34 1.28L206.34 1.28Q203.71 1.28 201.95 0.29L201.95 0.29L201.95 0.29Q200.19-0.70 199.68-2.37L199.68-2.37L199.68-2.37Q198.66-0.77 196.48 0.26L196.48 0.26L196.48 0.26Q194.30 1.28 191.39 1.28L191.39 1.28L191.39 1.28Q188.48 1.28 186.11 0.51L186.11 0.51L186.11 0.51Q183.74-0.26 182.24-1.92ZM195.74-27.90L195.74-27.90L195.74-27.90Q195.01-26.75 194.37-24.80L194.37-24.80L194.37-24.80Q193.73-22.85 192.67-17.63L192.67-17.63L192.67-17.63Q191.62-12.42 191.62-8.70L191.62-8.70L191.62-8.70Q191.62-4.99 192.19-3.90L192.19-3.90L192.19-3.90Q192.77-2.82 193.79-2.82L193.79-2.82L193.79-2.82Q195.84-2.82 197.34-4.77L197.34-4.77L197.34-4.77Q198.85-6.72 199.42-10.18L199.42-10.18L202.82-28.93L202.82-28.93Q201.47-30.08 199.90-30.08L199.90-30.08L199.90-30.08Q198.34-30.08 197.41-29.57L197.41-29.57L197.41-29.57Q196.48-29.06 195.74-27.90ZM239.68-17.98L239.68-17.98L239.68-17.98Q241.98-22.08 241.98-26.24L241.98-26.24L241.98-26.24Q241.98-28.99 240-28.99L240-28.99L240-28.99Q238.46-28.99 236.86-26.37L236.86-26.37L236.86-26.37Q235.20-23.74 234.69-20.35L234.69-20.35L231.36 0L218.11 1.28L224.64-32.64L235.20-33.92L234.05-27.46L234.05-27.46Q237.18-33.92 244.22-33.92L244.22-33.92L244.22-33.92Q247.94-33.92 249.95-32L249.95-32L249.95-32Q251.97-30.08 251.97-26.14L251.97-26.14L251.97-26.14Q251.97-22.21 249.38-19.71L249.38-19.71L249.38-19.71Q246.78-17.22 242.37-17.22L242.37-17.22L242.37-17.22Q240.45-17.22 239.68-17.98ZM276.22-31.55L276.22-31.55L276.22-31.55Q278.34-33.92 281.98-33.92L281.98-33.92L281.98-33.92Q284.22-33.92 285.95-32.70L285.95-32.70L285.95-32.70Q287.68-31.49 287.68-29.22L287.68-29.22L287.68-29.22Q287.68-26.94 286.98-24.51L286.98-24.51L286.98-24.51Q286.27-22.08 285.18-19.58L285.18-19.58L285.18-19.58Q283.01-14.72 280-10.69L280-10.69L280-10.69Q275.78-4.86 271.71-1.79L271.71-1.79L271.71-1.79Q267.65 1.28 263.23 1.28L263.23 1.28L263.23 1.28Q259.65 1.28 257.47 0.45L257.47 0.45L257.47 0.45Q257.09-12.99 256.61-17.79L256.61-17.79L256.61-17.79Q256.13-22.59 255.74-25.22L255.74-25.22L255.74-25.22Q255.10-30.34 253.18-31.55L253.18-31.55L253.18-31.55Q254.66-32.83 256.10-33.38L256.10-33.38L256.10-33.38Q257.54-33.92 260.51-33.92L260.51-33.92L260.51-33.92Q263.49-33.92 265.60-31.58L265.60-31.58L265.60-31.58Q267.71-29.25 268.13-25.12L268.13-25.12L268.13-25.12Q268.54-20.99 268.54-16L268.54-16L268.54-16Q268.54-11.01 268.16-4.99L268.16-4.99L268.16-4.99Q270.14-6.40 272.26-10.69L272.26-10.69L272.26-10.69Q275.14-16.64 276.16-23.81L276.16-23.81L276.16-23.81Q276.48-25.98 276.48-28.29L276.48-28.29L276.48-28.29Q276.48-30.59 276.22-31.55ZM292.19-1.92L292.19-1.92L292.19-1.92Q290.69-3.58 290.02-6.21L290.02-6.21L290.02-6.21Q289.34-8.83 289.34-13.12L289.34-13.12L289.34-13.12Q289.34-17.41 290.82-21.31L290.82-21.31L290.82-21.31Q292.29-25.22 294.98-28.03L294.98-28.03L294.98-28.03Q300.48-33.92 309.57-33.92L309.57-33.92L309.57-33.92Q312.83-33.92 315.20-32.83L315.20-32.83L326.14-33.92L321.41-8.96L321.41-8.96Q321.22-8.19 321.22-6.78L321.22-6.78L321.22-6.78Q321.22-5.38 322.08-4.48L322.08-4.48L322.08-4.48Q322.94-3.58 324.22-3.46L324.22-3.46L324.22-3.46Q323.58-1.28 321.25 0L321.25 0L321.25 0Q318.91 1.28 316.29 1.28L316.29 1.28L316.29 1.28Q313.66 1.28 311.90 0.29L311.90 0.29L311.90 0.29Q310.14-0.70 309.63-2.37L309.63-2.37L309.63-2.37Q308.61-0.77 306.43 0.26L306.43 0.26L306.43 0.26Q304.26 1.28 301.34 1.28L301.34 1.28L301.34 1.28Q298.43 1.28 296.06 0.51L296.06 0.51L296.06 0.51Q293.70-0.26 292.19-1.92ZM305.70-27.90L305.70-27.90L305.70-27.90Q304.96-26.75 304.32-24.80L304.32-24.80L304.32-24.80Q303.68-22.85 302.62-17.63L302.62-17.63L302.62-17.63Q301.57-12.42 301.57-8.70L301.57-8.70L301.57-8.70Q301.57-4.99 302.14-3.90L302.14-3.90L302.14-3.90Q302.72-2.82 303.74-2.82L303.74-2.82L303.74-2.82Q305.79-2.82 307.30-4.77L307.30-4.77L307.30-4.77Q308.80-6.72 309.38-10.18L309.38-10.18L312.77-28.93L312.77-28.93Q311.42-30.08 309.86-30.08L309.86-30.08L309.86-30.08Q308.29-30.08 307.36-29.57L307.36-29.57L307.36-29.57Q306.43-29.06 305.70-27.90ZM344.90-3.52L344.90-3.52L344.90-3.52Q342.91 1.28 336.58 1.28L336.58 1.28L336.58 1.28Q333.38 1.28 331.33-0.96L331.33-0.96L331.33-0.96Q329.66-2.82 329.66-4.93L329.66-4.93L329.66-4.93Q329.66-9.73 331.90-20.22L331.90-20.22L336.58-44.80L349.57-46.08L343.36-13.70L343.36-13.70Q342.27-8.96 342.27-7.30L342.27-7.30L342.27-7.30Q342.27-3.65 344.90-3.52ZM382.53-7.10L382.53-7.10L382.53-7.10Q382.53-4.29 385.41-3.46L385.41-3.46L385.41-3.46Q384.70-1.09 381.95 0.19L381.95 0.19L381.95 0.19Q379.65 1.28 377.12 1.28L377.12 1.28L377.12 1.28Q374.59 1.28 373.28 0.61L373.28 0.61L373.28 0.61Q371.97-0.06 371.26-1.15L371.26-1.15L371.26-1.15Q370.11-2.82 370.11-5.95L370.11-5.95L370.11-5.95Q370.11-7.81 371.14-12.93L371.14-12.93L372.03-17.79L372.03-17.79Q373.12-23.36 373.12-25.41L373.12-25.41L373.12-25.41Q373.12-28.99 371.14-28.99L371.14-28.99L371.14-28.99Q368.64-28.99 367.04-25.34L367.04-25.34L367.04-25.34Q366.40-23.94 365.95-21.82L365.95-21.82L361.60 0L348.74 1.28L357.76-44.80L370.62-46.08L370.11-43.52L370.11-43.52Q368.32-33.66 366.78-30.34L366.78-30.34L366.78-30.34Q370.37-33.92 376.96-33.92L376.96-33.92L376.96-33.92Q383.94-33.92 385.22-29.31L385.22-29.31L385.22-29.31Q385.66-27.84 385.66-26.56L385.66-26.56L385.66-26.56Q385.66-25.28 385.57-24.29L385.57-24.29L385.57-24.29Q385.47-23.30 385.15-21.50L385.15-21.50L384.32-16.90L382.85-9.66L382.85-9.66Q382.53-8.19 382.53-7.10ZM404.54 1.28L404.54 1.28L404.54 1.28Q390.46 1.28 390.46-11.97L390.46-11.97L390.46-11.97Q390.46-21.38 395.65-27.46L395.65-27.46L395.65-27.46Q401.15-33.92 410.69-33.92L410.69-33.92L410.69-33.92Q417.60-33.92 421.12-30.72L421.12-30.72L421.12-30.72Q424.64-27.52 424.64-20.80L424.64-20.80L424.64-20.80Q424.64-10.56 419.14-4.61L419.14-4.61L419.14-4.61Q413.76 1.28 404.54 1.28ZM406.21-26.56L406.21-26.56L406.21-26.56Q405.44-24.83 404.83-22.24L404.83-22.24L404.83-22.24Q404.22-19.65 403.46-15.55L403.46-15.55L403.46-15.55Q402.69-11.46 402.69-6.40L402.69-6.40L402.69-6.40Q402.69-4.74 403.23-3.65L403.23-3.65L403.23-3.65Q403.78-2.56 405.25-2.56L405.25-2.56L405.25-2.56Q406.72-2.56 407.65-3.26L407.65-3.26L407.65-3.26Q408.58-3.97 409.28-5.63L409.28-5.63L409.28-5.63Q410.56-8.58 411.58-14.05L411.58-14.05L411.58-14.05Q412.61-19.52 412.70-21.89L412.70-21.89L412.70-21.89Q412.80-24.26 412.80-26.02L412.80-26.02L412.80-26.02Q412.80-27.78 412.29-28.93L412.29-28.93L412.29-28.93Q411.78-30.08 410.34-30.08L410.34-30.08L410.34-30.08Q408.90-30.08 407.94-29.18L407.94-29.18L407.94-29.18Q406.98-28.29 406.21-26.56ZM466.62-42.69L466.62-42.69L466.62-42.69Q482.30-42.69 482.30-31.62L482.30-31.62L482.30-31.62Q482.30-25.54 478.40-21.89L478.40-21.89L478.40-21.89Q474.56-18.24 467.84-18.24L467.84-18.24L467.84-18.24Q464.70-18.24 462.27-20.03L462.27-20.03L462.27-20.03Q461.12-20.80 460.35-21.82L460.35-21.82L460.35-21.82Q465.02-21.82 467.49-24.67L467.49-24.67L467.49-24.67Q469.95-27.52 469.95-33.09L469.95-33.09L469.95-33.09Q469.95-38.66 464.45-38.66L464.45-38.66L462.91-38.66L462.91-38.66Q462.53-38.66 462.21-38.59L462.21-38.59L454.85 0L440.96 0L448.83-41.92L448.83-41.92Q455.68-42.56 459.65-42.62L459.65-42.62L459.65-42.62Q463.62-42.69 466.62-42.69ZM508.54-10.82L508.54-10.82L508.54-10.82Q510.14-9.73 510.14-7.33L510.14-7.33L510.14-7.33Q510.14-4.93 508.93-3.39L508.93-3.39L508.93-3.39Q507.71-1.86 505.73-0.83L505.73-0.83L505.73-0.83Q501.63 1.28 497.22 1.28L497.22 1.28L497.22 1.28Q492.80 1.28 490.21 0.32L490.21 0.32L490.21 0.32Q487.62-0.64 485.89-2.43L485.89-2.43L485.89-2.43Q482.50-5.82 482.50-12.03L482.50-12.03L482.50-12.03Q482.50-21.70 487.74-27.58L487.74-27.58L487.74-27.58Q493.38-33.92 503.17-33.92L503.17-33.92L503.17-33.92Q509.25-33.92 512.26-31.36L512.26-31.36L512.26-31.36Q514.50-29.44 514.50-26.30L514.50-26.30L514.50-26.30Q514.50-15.04 495.04-15.04L495.04-15.04L495.04-15.04Q494.78-13.38 494.78-11.97L494.78-11.97L494.78-11.97Q494.78-9.02 496.10-7.90L496.10-7.90L496.10-7.90Q497.41-6.78 499.84-6.78L499.84-6.78L499.84-6.78Q502.27-6.78 504.86-7.90L504.86-7.90L504.86-7.90Q507.46-9.02 508.54-10.82ZM495.49-17.79L495.49-17.79L495.49-17.79Q500.03-17.79 502.66-20.61L502.66-20.61L502.66-20.61Q505.28-23.30 505.28-27.58L505.28-27.58L505.28-27.58Q505.28-29.06 504.74-29.86L504.74-29.86L504.74-29.86Q504.19-30.66 503.10-30.66L503.10-30.66L503.10-30.66Q502.02-30.66 501.09-30.24L501.09-30.24L501.09-30.24Q500.16-29.82 499.20-28.42L499.20-28.42L499.20-28.42Q496.83-25.22 495.49-17.79ZM536.70-17.98L536.70-17.98L536.70-17.98Q539.01-22.08 539.01-26.24L539.01-26.24L539.01-26.24Q539.01-28.99 537.02-28.99L537.02-28.99L537.02-28.99Q535.49-28.99 533.89-26.37L533.89-26.37L533.89-26.37Q532.22-23.74 531.71-20.35L531.71-20.35L528.38 0L515.14 1.28L521.66-32.64L532.22-33.92L531.07-27.46L531.07-27.46Q534.21-33.92 541.25-33.92L541.25-33.92L541.25-33.92Q544.96-33.92 546.98-32L546.98-32L546.98-32Q548.99-30.08 548.99-26.14L548.99-26.14L548.99-26.14Q548.99-22.21 546.40-19.71L546.40-19.71L546.40-19.71Q543.81-17.22 539.39-17.22L539.39-17.22L539.39-17.22Q537.47-17.22 536.70-17.98ZM569.15-22.46L569.15-22.46L569.15-22.46Q570.05-24.83 570.05-26.88L570.05-26.88L570.05-26.88Q570.05-30.66 566.98-30.66L566.98-30.66L566.98-30.66Q565.38-30.66 564.06-29.22L564.06-29.22L564.06-29.22Q562.75-27.78 562.75-25.98L562.75-25.98L562.75-25.98Q562.75-24.70 563.78-23.68L563.78-23.68L563.78-23.68Q565.25-22.27 569.02-19.97L569.02-19.97L569.02-19.97Q572.80-17.66 574.24-15.78L574.24-15.78L574.24-15.78Q575.68-13.89 575.68-11.30L575.68-11.30L575.68-11.30Q575.68-8.70 574.43-6.34L574.43-6.34L574.43-6.34Q573.18-3.97 570.94-2.30L570.94-2.30L570.94-2.30Q566.14 1.28 558.46 1.28L558.46 1.28L558.46 1.28Q554.30 1.28 551.10-0.90L551.10-0.90L551.10-0.90Q547.90-3.01 547.90-5.50L547.90-5.50L547.90-5.50Q547.90-8 549.73-9.47L549.73-9.47L549.73-9.47Q551.55-10.94 554.24-10.94L554.24-10.94L554.24-10.94Q556.93-10.94 558.59-9.92L558.59-9.92L558.59-9.92Q557.76-7.81 557.76-6.40L557.76-6.40L557.76-6.40Q557.76-2.18 561.34-2.18L561.34-2.18L561.34-2.18Q562.88-2.18 563.90-3.14L563.90-3.14L563.90-3.14Q564.93-4.10 564.93-5.76L564.93-5.76L564.93-5.76Q564.93-9.02 559.42-12.48L559.42-12.48L559.42-12.48Q554.94-15.42 553.92-16.58L553.92-16.58L553.92-16.58Q552.19-18.62 552.19-21.18L552.19-21.18L552.19-21.18Q552.19-23.74 553.41-26.18L553.41-26.18L553.41-26.18Q554.62-28.61 556.86-30.34L556.86-30.34L556.86-30.34Q561.54-33.92 569.66-33.92L569.66-33.92L569.66-33.92Q573.82-33.92 576.29-32.26L576.29-32.26L576.29-32.26Q578.75-30.59 578.75-27.78L578.75-27.78L578.75-27.78Q578.75-24.96 577.06-23.36L577.06-23.36L577.06-23.36Q575.36-21.76 572.29-21.76L572.29-21.76L572.29-21.76Q570.18-21.76 569.15-22.46ZM595.07 1.28L595.07 1.28L595.07 1.28Q580.99 1.28 580.99-11.97L580.99-11.97L580.99-11.97Q580.99-21.38 586.18-27.46L586.18-27.46L586.18-27.46Q591.68-33.92 601.22-33.92L601.22-33.92L601.22-33.92Q608.13-33.92 611.65-30.72L611.65-30.72L611.65-30.72Q615.17-27.52 615.17-20.80L615.17-20.80L615.17-20.80Q615.17-10.56 609.66-4.61L609.66-4.61L609.66-4.61Q604.29 1.28 595.07 1.28ZM596.74-26.56L596.74-26.56L596.74-26.56Q595.97-24.83 595.36-22.24L595.36-22.24L595.36-22.24Q594.75-19.65 593.98-15.55L593.98-15.55L593.98-15.55Q593.22-11.46 593.22-6.40L593.22-6.40L593.22-6.40Q593.22-4.74 593.76-3.65L593.76-3.65L593.76-3.65Q594.30-2.56 595.78-2.56L595.78-2.56L595.78-2.56Q597.25-2.56 598.18-3.26L598.18-3.26L598.18-3.26Q599.10-3.97 599.81-5.63L599.81-5.63L599.81-5.63Q601.09-8.58 602.11-14.05L602.11-14.05L602.11-14.05Q603.14-19.52 603.23-21.89L603.23-21.89L603.23-21.89Q603.33-24.26 603.33-26.02L603.33-26.02L603.33-26.02Q603.33-27.78 602.82-28.93L602.82-28.93L602.82-28.93Q602.30-30.08 600.86-30.08L600.86-30.08L600.86-30.08Q599.42-30.08 598.46-29.18L598.46-29.18L598.46-29.18Q597.50-28.29 596.74-26.56ZM646.02 1.28L646.02 1.28L646.02 1.28Q638.27 1.28 638.27-4.74L638.27-4.74L638.27-4.74Q638.34-6.40 638.85-9.22L638.85-9.22L640.00-15.10L640.00-15.10Q641.73-23.42 641.73-25.28L641.73-25.28L641.73-25.28Q641.73-28.99 639.55-28.99L639.55-28.99L639.55-28.99Q635.90-28.99 633.98-19.46L633.98-19.46L630.21 0L617.34 1.28L624.00-32.70L634.50-33.92L633.47-27.65L633.47-27.65Q636.48-33.92 645.70-33.92L645.70-33.92L645.70-33.92Q650.18-33.92 652.06-32.03L652.06-32.03L652.06-32.03Q653.95-30.14 653.95-25.92L653.95-25.92L653.95-25.92Q653.95-21.95 651.90-12.67L651.90-12.67L651.90-12.67Q650.94-8.51 650.94-6.94L650.94-6.94L650.94-6.94Q650.94-5.38 651.81-4.48L651.81-4.48L651.81-4.48Q652.67-3.58 653.95-3.46L653.95-3.46L653.95-3.46Q653.31-1.28 651.10 0L651.10 0L651.10 0Q648.90 1.28 646.02 1.28ZM661.86-1.92L661.86-1.92L661.86-1.92Q660.35-3.58 659.68-6.21L659.68-6.21L659.68-6.21Q659.01-8.83 659.01-13.12L659.01-13.12L659.01-13.12Q659.01-17.41 660.48-21.31L660.48-21.31L660.48-21.31Q661.95-25.22 664.64-28.03L664.64-28.03L664.64-28.03Q670.14-33.92 679.23-33.92L679.23-33.92L679.23-33.92Q682.50-33.92 684.86-32.83L684.86-32.83L695.81-33.92L691.07-8.96L691.07-8.96Q690.88-8.19 690.88-6.78L690.88-6.78L690.88-6.78Q690.88-5.38 691.74-4.48L691.74-4.48L691.74-4.48Q692.61-3.58 693.89-3.46L693.89-3.46L693.89-3.46Q693.25-1.28 690.91 0L690.91 0L690.91 0Q688.58 1.28 685.95 1.28L685.95 1.28L685.95 1.28Q683.33 1.28 681.57 0.29L681.57 0.29L681.57 0.29Q679.81-0.70 679.30-2.37L679.30-2.37L679.30-2.37Q678.27-0.77 676.10 0.26L676.10 0.26L676.10 0.26Q673.92 1.28 671.01 1.28L671.01 1.28L671.01 1.28Q668.10 1.28 665.73 0.51L665.73 0.51L665.73 0.51Q663.36-0.26 661.86-1.92ZM675.36-27.90L675.36-27.90L675.36-27.90Q674.62-26.75 673.98-24.80L673.98-24.80L673.98-24.80Q673.34-22.85 672.29-17.63L672.29-17.63L672.29-17.63Q671.23-12.42 671.23-8.70L671.23-8.70L671.23-8.70Q671.23-4.99 671.81-3.90L671.81-3.90L671.81-3.90Q672.38-2.82 673.41-2.82L673.41-2.82L673.41-2.82Q675.46-2.82 676.96-4.77L676.96-4.77L676.96-4.77Q678.46-6.72 679.04-10.18L679.04-10.18L682.43-28.93L682.43-28.93Q681.09-30.08 679.52-30.08L679.52-30.08L679.52-30.08Q677.95-30.08 677.02-29.57L677.02-29.57L677.02-29.57Q676.10-29.06 675.36-27.90ZM714.56-3.52L714.56-3.52L714.56-3.52Q712.58 1.28 706.24 1.28L706.24 1.28L706.24 1.28Q703.04 1.28 700.99-0.96L700.99-0.96L700.99-0.96Q699.33-2.82 699.33-4.93L699.33-4.93L699.33-4.93Q699.33-9.73 701.57-20.22L701.57-20.22L706.24-44.80L719.23-46.08L713.02-13.70L713.02-13.70Q711.94-8.96 711.94-7.30L711.94-7.30L711.94-7.30Q711.94-3.65 714.56-3.52ZM734.78-39.68L734.78-39.68L734.78-39.68Q735.68-41.47 737.63-42.46L737.63-42.46L737.63-42.46Q739.58-43.46 742.27-43.46L742.27-43.46L742.27-43.46Q746.50-43.46 749.02-40.42L749.02-40.42L749.02-40.42Q751.55-37.38 751.55-30.72L751.55-30.72L751.55-7.87L766.21-42.18L773.76-42.18L775.49-9.79L775.30-7.94L790.53-42.18L799.30-42.18L778.82 0L765.18 0L763.90-19.46L755.46 0L740.03 0L738.11-30.72L738.11-30.72Q737.92-34.18 736.99-36.45L736.99-36.45L736.99-36.45Q736.06-38.72 734.78-39.68ZM821.38-10.82L821.38-10.82L821.38-10.82Q822.98-9.73 822.98-7.33L822.98-7.33L822.98-7.33Q822.98-4.93 821.76-3.39L821.76-3.39L821.76-3.39Q820.54-1.86 818.56-0.83L818.56-0.83L818.56-0.83Q814.46 1.28 810.05 1.28L810.05 1.28L810.05 1.28Q805.63 1.28 803.04 0.32L803.04 0.32L803.04 0.32Q800.45-0.64 798.72-2.43L798.72-2.43L798.72-2.43Q795.33-5.82 795.33-12.03L795.33-12.03L795.33-12.03Q795.33-21.70 800.58-27.58L800.58-27.58L800.58-27.58Q806.21-33.92 816.00-33.92L816.00-33.92L816.00-33.92Q822.08-33.92 825.09-31.36L825.09-31.36L825.09-31.36Q827.33-29.44 827.33-26.30L827.33-26.30L827.33-26.30Q827.33-15.04 807.87-15.04L807.87-15.04L807.87-15.04Q807.62-13.38 807.62-11.97L807.62-11.97L807.62-11.97Q807.62-9.02 808.93-7.90L808.93-7.90L808.93-7.90Q810.24-6.78 812.67-6.78L812.67-6.78L812.67-6.78Q815.10-6.78 817.70-7.90L817.70-7.90L817.70-7.90Q820.29-9.02 821.38-10.82ZM808.32-17.79L808.32-17.79L808.32-17.79Q812.86-17.79 815.49-20.61L815.49-20.61L815.49-20.61Q818.11-23.30 818.11-27.58L818.11-27.58L818.11-27.58Q818.11-29.06 817.57-29.86L817.57-29.86L817.57-29.86Q817.02-30.66 815.94-30.66L815.94-30.66L815.94-30.66Q814.85-30.66 813.92-30.24L813.92-30.24L813.92-30.24Q812.99-29.82 812.03-28.42L812.03-28.42L812.03-28.42Q809.66-25.22 808.32-17.79ZM828.67-3.07L828.67-3.07L836.61-44.80L849.60-46.08L847.62-36.29L847.62-36.29Q846.91-33.28 846.02-31.17L846.02-31.17L846.02-31.17Q847.42-32.96 850.50-33.66L850.50-33.66L850.50-33.66Q851.39-33.92 852.48-33.92L852.48-33.92L852.48-33.92Q858.43-33.92 861.70-30.30L861.70-30.30L861.70-30.30Q864.96-26.69 864.96-19.71L864.96-19.71L864.96-19.71Q864.96-10.62 859.78-4.93L859.78-4.93L859.78-4.93Q854.21 1.28 844.10 1.28L844.10 1.28L844.10 1.28Q837.12 1.28 831.87-1.02L831.87-1.02L831.87-1.02Q830.02-1.86 828.67-3.07ZM844.93-22.40L841.54-3.65L841.54-3.65Q842.88-2.50 844.54-2.50L844.54-2.50L844.54-2.50Q846.21-2.50 847.17-3.14L847.17-3.14L847.17-3.14Q848.13-3.78 848.83-5.06L848.83-5.06L848.83-5.06Q850.75-8.51 852.29-19.07L852.29-19.07L852.29-19.07Q852.74-22.08 852.74-25.09L852.74-25.09L852.74-25.09Q852.74-28.10 852.06-29.06L852.06-29.06L852.06-29.06Q851.39-30.02 850.11-30.02L850.11-30.02L850.11-30.02Q846.21-30.02 844.93-22.40L844.93-22.40ZM887.94-22.46L887.94-22.46L887.94-22.46Q888.83-24.83 888.83-26.88L888.83-26.88L888.83-26.88Q888.83-30.66 885.76-30.66L885.76-30.66L885.76-30.66Q884.16-30.66 882.85-29.22L882.85-29.22L882.85-29.22Q881.54-27.78 881.54-25.98L881.54-25.98L881.54-25.98Q881.54-24.70 882.56-23.68L882.56-23.68L882.56-23.68Q884.03-22.27 887.81-19.97L887.81-19.97L887.81-19.97Q891.58-17.66 893.02-15.78L893.02-15.78L893.02-15.78Q894.46-13.89 894.46-11.30L894.46-11.30L894.46-11.30Q894.46-8.70 893.22-6.34L893.22-6.34L893.22-6.34Q891.97-3.97 889.73-2.30L889.73-2.30L889.73-2.30Q884.93 1.28 877.25 1.28L877.25 1.28L877.25 1.28Q873.09 1.28 869.89-0.90L869.89-0.90L869.89-0.90Q866.69-3.01 866.69-5.50L866.69-5.50L866.69-5.50Q866.69-8 868.51-9.47L868.51-9.47L868.51-9.47Q870.34-10.94 873.02-10.94L873.02-10.94L873.02-10.94Q875.71-10.94 877.38-9.92L877.38-9.92L877.38-9.92Q876.54-7.81 876.54-6.40L876.54-6.40L876.54-6.40Q876.54-2.18 880.13-2.18L880.13-2.18L880.13-2.18Q881.66-2.18 882.69-3.14L882.69-3.14L882.69-3.14Q883.71-4.10 883.71-5.76L883.71-5.76L883.71-5.76Q883.71-9.02 878.21-12.48L878.21-12.48L878.21-12.48Q873.73-15.42 872.70-16.58L872.70-16.58L872.70-16.58Q870.98-18.62 870.98-21.18L870.98-21.18L870.98-21.18Q870.98-23.74 872.19-26.18L872.19-26.18L872.19-26.18Q873.41-28.61 875.65-30.34L875.65-30.34L875.65-30.34Q880.32-33.92 888.45-33.92L888.45-33.92L888.45-33.92Q892.61-33.92 895.07-32.26L895.07-32.26L895.07-32.26Q897.54-30.59 897.54-27.78L897.54-27.78L897.54-27.78Q897.54-24.96 895.84-23.36L895.84-23.36L895.84-23.36Q894.14-21.76 891.07-21.76L891.07-21.76L891.07-21.76Q888.96-21.76 887.94-22.46ZM915.26-3.52L915.26-3.52L915.26-3.52Q913.28 1.28 906.94 1.28L906.94 1.28L906.94 1.28Q903.68 1.28 901.63-0.96L901.63-0.96L901.63-0.96Q899.90-2.94 899.90-4.93L899.90-4.93L899.90-4.93Q899.90-10.11 902.27-20.22L902.27-20.22L904.64-32.64L917.63-33.92L913.73-13.70L913.73-13.70Q912.64-8.96 912.64-7.30L912.64-7.30L912.64-7.30Q912.64-3.65 915.26-3.52ZM905.79-41.54L905.79-41.54L905.79-41.54Q905.79-44.03 907.87-45.38L907.87-45.38L907.87-45.38Q909.95-46.72 912.96-46.72L912.96-46.72L912.96-46.72Q915.97-46.72 917.79-45.38L917.79-45.38L917.79-45.38Q919.62-44.03 919.62-41.54L919.62-41.54L919.62-41.54Q919.62-39.04 917.60-37.76L917.60-37.76L917.60-37.76Q915.58-36.48 912.58-36.48L912.58-36.48L912.58-36.48Q909.57-36.48 907.68-37.76L907.68-37.76L907.68-37.76Q905.79-39.04 905.79-41.54ZM921.73-6.40L921.73-6.40L921.73-6.40Q921.73-8.13 922.62-12.48L922.62-12.48L926.02-29.76L922.24-29.76L922.50-31.68L922.50-31.68Q930.18-33.98 937.60-39.62L937.60-39.62L940.67-39.62L939.14-32.64L944.13-32.64L943.55-29.76L938.62-29.76L935.36-12.48L935.36-12.48Q934.53-8.51 934.53-7.17L934.53-7.17L934.53-7.17Q934.53-4.10 937.22-3.46L937.22-3.46L937.22-3.46Q936.58-1.28 934.27 0L934.27 0L934.27 0Q931.97 1.28 928.70 1.28L928.70 1.28L928.70 1.28Q925.44 1.28 923.58-0.77L923.58-0.77L923.58-0.77Q921.73-2.82 921.73-6.40ZM969.47-10.82L969.47-10.82L969.47-10.82Q971.07-9.73 971.07-7.33L971.07-7.33L971.07-7.33Q971.07-4.93 969.86-3.39L969.86-3.39L969.86-3.39Q968.64-1.86 966.66-0.83L966.66-0.83L966.66-0.83Q962.56 1.28 958.14 1.28L958.14 1.28L958.14 1.28Q953.73 1.28 951.14 0.32L951.14 0.32L951.14 0.32Q948.54-0.64 946.82-2.43L946.82-2.43L946.82-2.43Q943.42-5.82 943.42-12.03L943.42-12.03L943.42-12.03Q943.42-21.70 948.67-27.58L948.67-27.58L948.67-27.58Q954.30-33.92 964.10-33.92L964.10-33.92L964.10-33.92Q970.18-33.92 973.18-31.36L973.18-31.36L973.18-31.36Q975.42-29.44 975.42-26.30L975.42-26.30L975.42-26.30Q975.42-15.04 955.97-15.04L955.97-15.04L955.97-15.04Q955.71-13.38 955.71-11.97L955.71-11.97L955.71-11.97Q955.71-9.02 957.02-7.90L957.02-7.90L957.02-7.90Q958.34-6.78 960.77-6.78L960.77-6.78L960.77-6.78Q963.20-6.78 965.79-7.90L965.79-7.90L965.79-7.90Q968.38-9.02 969.47-10.82ZM956.42-17.79L956.42-17.79L956.42-17.79Q960.96-17.79 963.58-20.61L963.58-20.61L963.58-20.61Q966.21-23.30 966.21-27.58L966.21-27.58L966.21-27.58Q966.21-29.06 965.66-29.86L965.66-29.86L965.66-29.86Q965.12-30.66 964.03-30.66L964.03-30.66L964.03-30.66Q962.94-30.66 962.02-30.24L962.02-30.24L962.02-30.24Q961.09-29.82 960.13-28.42L960.13-28.42L960.13-28.42Q957.76-25.22 956.42-17.79Z" fill="#00a139"></path></g></g><style>text {
  font-size: 64px;
  font-family: Arial Black;
  dominant-baseline: central;
  text-anchor: middle;
}</style></svg>